<svg xmlns="http://www.w3.org/2000/svg" viewBox="176 6 68 68" fill="none">
  <path d="M241.359 57.7396C240.224 58.7917 237.339 60.5208 235.281 61.625C232.792 62.9583 229.562 64.5 226.698 64.2656C225.682 64.1823 224.953 62.8385 225.661 61.9948C227.448 59.8802 230.51 58.5833 232.953 57.2708C209.594 54.7656 186.536 40.4063 177.901 18.0677C177.375 16.7031 179.161 15.6979 179.948 17C191.547 36.2344 211.552 50.2031 234.073 51.2917C233.646 50.6563 233.219 50.0156 232.786 49.3802C231.047 46.8125 229.036 44.3594 228.224 41.3281C227.687 39.3125 230.234 37.6719 231.901 38.8125C234.365 40.4896 235.901 43.1042 237.62 45.4844C239.37 47.901 241.177 50.2813 242.833 52.7604C243.995 54.4896 242.495 56.6875 241.359 57.7396Z" fill="#FF8C00"/>
</svg>
